<svg id="Capa_1" enable-background="new 0 0 512 512" height="512" viewBox="0 0 512 512" width="512" xmlns="http://www.w3.org/2000/svg"><g><path d="m371.613 152.774v16.517l41.29 11.042v-27.559z" fill="#5d5360"/><path d="m313.806 169.29h99.097v24.774h-99.097z" fill="#b6b1b7"/><path d="m429.419 227.097c-45.608 0-82.581 36.972-82.581 82.581 0 45.608 36.973 82.581 82.581 82.581s82.581-36.974 82.581-82.582-36.973-82.58-82.581-82.58zm0 132.129c-27.365 0-49.548-22.183-49.548-49.548s22.183-49.548 49.548-49.548 49.548 22.183 49.548 49.548c.001 27.364-22.183 49.548-49.548 49.548z" fill="#5d5360"/><path d="m429.419 367.484c-31.871 0-57.806-25.931-57.806-57.806s25.935-57.806 57.806-57.806 57.806 25.931 57.806 57.806-25.935 57.806-57.806 57.806zm0-99.097c-22.766 0-41.29 18.524-41.29 41.29s18.524 41.29 41.29 41.29 41.29-18.524 41.29-41.29c.001-22.766-18.524-41.29-41.29-41.29z" fill="#e5646e"/><circle cx="429.419" cy="309.677" fill="#857e87" r="24.774"/><path d="m429.419 317.94c-3.371 0-6.54-2.085-7.758-5.44l-35.685-98.133c-1.565-4.286.653-9.024 4.935-10.585 4.306-1.556 9.024.653 10.581 4.94l35.685 98.133c1.565 4.286-.653 9.024-4.935 10.585-.936.338-1.887.5-2.823.5z" fill="#b6b1b7"/><path d="m171.622 300.23 45.229-60.589 48.439 49.391-41.864 23.293z" fill="#9b959d"/><path d="m231.226 177.548h-62.416c-7.526 0-14.644-3.421-19.345-9.298l-15.676-19.595c-6.269-7.836-15.759-12.397-25.794-12.397h-31.337c-6.101 0-8.72 7.742-3.873 11.447l221.409 169.199v-50.581z" fill="#db4655"/><path d="m231.226 185.806h-62.419c-10.089 0-19.484-4.52-25.79-12.399-2.847-3.56-2.266-8.758 1.29-11.605 3.573-2.855 8.758-2.27 11.613 1.29 3.145 3.94 7.847 6.198 12.887 6.198h62.419c4.565 0 8.258 3.698 8.258 8.258s-3.694 8.258-8.258 8.258z" fill="#5d5360"/><path d="m82.581 227.097c-45.608 0-82.581 36.972-82.581 82.58s36.973 82.581 82.581 82.581 82.581-36.973 82.581-82.581c-.001-45.608-36.973-82.58-82.581-82.58zm0 132.129c-27.365 0-49.548-22.183-49.548-49.548s22.183-49.548 49.548-49.548 49.548 22.183 49.548 49.548c0 27.364-22.183 49.548-49.548 49.548z" fill="#5d5360"/><path d="m82.581 367.484c-31.871 0-57.806-25.931-57.806-57.806s25.935-57.806 57.806-57.806 57.806 25.931 57.806 57.806-25.935 57.806-57.806 57.806zm0-99.097c-22.766 0-41.29 18.524-41.29 41.29s18.524 41.29 41.29 41.29 41.29-18.524 41.29-41.29-18.524-41.29-41.29-41.29z" fill="#e5646e"/><circle cx="82.581" cy="309.677" fill="#857e87" r="24.774"/><path d="m148.945 270.218c-3.987-2.215-9.015-.778-11.23 3.209l-8.021 14.441c-2.215 3.987-.778 9.014 3.209 11.229l80.516 45.677 10.007-32.45z" fill="#dad8db"/><path d="m459.076 192.299-59.031-72.557c-5.766 0-9.757 5.759-7.732 11.158l12.222 32.591c4.049 10.797-3.933 22.315-15.465 22.315h-50.49v-8.258c0-18.243-14.789-33.032-33.032-33.032h-34.63c-15.002 0-29.557 5.105-41.272 14.477l-10.726 8.581c-6.953 5.562-8.245 15.636-2.921 22.773l14.272 19.13 22.396 6.857-2.231 20.172 24.509 32.853-20.322 5.222-50.855 34.084 7.565 34.001h123l14.614-8.215c.507-1.437.885-2.938 1.124-4.491l6.989-45.426c3.85-25.027 21.666-45.651 45.868-53.098l47.072-14.483c10.421-3.207 14.93-15.454 9.076-24.654z" fill="#e5646e"/><circle cx="256" cy="284.903" fill="#b6b1b7" r="24.774"/><path d="m417.771 127.391c-3.032-4.764-8.287-7.649-13.935-7.649h-3.791l24.389 45.744c5.235 9.819 13.623 17.591 23.813 22.062l10.829 4.752z" fill="#dad8db"/><circle cx="371.613" cy="161.032" fill="#4b3f4e" r="8.258"/><path d="m255.644 191.959-25.373 17.517 20.165 27.03 22.254-16.13c1.379-1 3.039-1.538 4.742-1.538h44.633c9.122 0 16.516-7.395 16.516-16.516v-16.516h-63.737c-6.885 0-13.598 2.152-19.2 6.153z" fill="#dad8db"/><path d="m231.973 334.452c-9.384 0-17.962-5.302-22.159-13.695l-6.046-12.092-1.749 1.172c-6.907 4.629-9.297 13.67-5.579 21.107l3.164 6.328c4.196 8.394 12.775 13.696 22.159 13.696h103.822c10.654 0 19.924-6.779 23.362-16.516z" fill="#db4655"/><circle cx="256" cy="284.903" fill="#dad8db" r="8.258"/></g></svg>